<svg width="52" height="36" fill="none" xmlns="http://www.w3.org/2000/svg"><path fill-rule="evenodd" clip-rule="evenodd" d="M0 5a5 5 0 015-5h41.652a5 5 0 015 5v26a5 5 0 01-5 5H5a5 5 0 01-5-5V5z" fill="#fff"/><path fill="#fff" d="M10.174 7.826h31.16V28.15h-31.16z" opacity=".01"/><path fill="#FF5F00" d="M21.644 11.367h8.22v13.24h-8.22z"/><path fill-rule="evenodd" clip-rule="evenodd" d="M22.492 17.988a8.364 8.364 0 013.26-6.619c-3.5-2.713-8.526-2.318-11.547.908a8.335 8.335 0 000 11.425c3.02 3.225 8.047 3.62 11.548.907a8.364 8.364 0 01-3.261-6.62z" fill="#EB001B"/><path fill-rule="evenodd" clip-rule="evenodd" d="M39.37 22.879v.664h-.065v-.503l-.102.432h-.07l-.102-.432v.503h-.068v-.664h.094l.11.474.11-.474h.093zm-.603.114v.55h-.057v-.55h-.123v-.114h.31v.114h-.13zM39.566 17.988c0 3.224-1.866 6.165-4.807 7.574a8.635 8.635 0 01-9.007-.955 8.378 8.378 0 003.262-6.62 8.378 8.378 0 00-3.262-6.62 8.635 8.635 0 019.007-.954c2.94 1.409 4.807 4.35 4.807 7.573v.002z" fill="#F79E1B"/></svg>