<svg width="52" height="36" fill="none" xmlns="http://www.w3.org/2000/svg"><path fill-rule="evenodd" clip-rule="evenodd" d="M0 5a5 5 0 015-5h41.652a5 5 0 015 5v26a5 5 0 01-5 5H5a5 5 0 01-5-5V5z" fill="#fff"/><path fill-rule="evenodd" clip-rule="evenodd" d="M22.259 9.391h5.34c1.505 0 3.288.05 4.482 1.102.797.703 1.215 1.823 1.119 3.025-.328 4.078-2.767 6.363-6.038 6.363h-2.634c-.448 0-.745.297-.872 1.101l-.735 4.676c-.047.303-.179.482-.42.504h-3.289c-.365 0-.495-.28-.4-.884l2.37-15c.095-.6.424-.887 1.077-.887z" fill="#1B3D92"/><path fill-rule="evenodd" clip-rule="evenodd" d="M25.694 14.086h5.335c2.864 0 3.943 1.45 3.776 3.584-.274 3.517-2.4 5.462-5.222 5.462H28.16c-.386 0-.646.256-.752.95l-.61 4.033c-.04.262-.178.416-.385.434h-3.345c-.315 0-.427-.24-.345-.762l2.043-12.935c.082-.519.366-.766.929-.766z" fill="#00A2D3"/><path fill-rule="evenodd" clip-rule="evenodd" d="M23.48 20.755l.932-5.903c.082-.519.365-.765.929-.765h5.335c.883 0 1.597.137 2.156.391-.536 3.63-2.884 5.646-5.957 5.646H24.24c-.347 0-.606.178-.762.63z" fill="#1B2E7F"/></svg>