<svg width="52" height="36" fill="none" xmlns="http://www.w3.org/2000/svg"><path fill-rule="evenodd" clip-rule="evenodd" d="M0 5a5 5 0 015-5h41.652a5 5 0 015 5v26a5 5 0 01-5 5H5a5 5 0 01-5-5V5z" fill="#fff"/><path fill-rule="evenodd" clip-rule="evenodd" d="M23.495 23.277h-2.77l1.733-10.434h2.77l-1.733 10.434zM33.538 13.099a6.988 6.988 0 00-2.485-.444c-2.736 0-4.662 1.42-4.674 3.452-.023 1.498 1.38 2.33 2.428 2.83 1.072.51 1.436.844 1.436 1.3-.011.698-.866 1.02-1.664 1.02-1.106 0-1.698-.166-2.599-.555l-.365-.166-.387 2.342c.65.288 1.846.544 3.09.555 2.906 0 4.798-1.399 4.82-3.563.012-1.188-.729-2.098-2.325-2.842-.968-.477-1.562-.799-1.562-1.287.011-.444.502-.9 1.596-.9.9-.022 1.562.19 2.063.4l.25.11.378-2.252zM38.496 12.844h2.143l2.235 10.433h-2.565s-.251-1.199-.33-1.565h-3.557l-.582 1.565h-2.906l4.114-9.568c.286-.677.788-.865 1.448-.865zm-.17 3.818l-1.106 2.92h2.303c-.114-.522-.639-3.02-.639-3.02l-.194-.899c-.081.232-.199.55-.278.764l-.086.235zM18.412 12.844l-2.713 7.114-.296-1.443c-.502-1.665-2.075-3.474-3.83-4.373l2.484 9.124h2.93l4.354-10.422h-2.93z" fill="#0742A6"/><path fill-rule="evenodd" clip-rule="evenodd" d="M13.18 12.844H8.721l-.045.21c3.476.866 5.779 2.954 6.725 5.462l-.969-4.795c-.16-.667-.65-.855-1.254-.877z" fill="#0742A6"/></svg>